<svg xmlns="http://www.w3.org/2000/svg" viewBox="0 0 276.91 301.54"><defs><style>.cls-1{fill:#fff;}</style></defs><title>digiziklogo</title><g id="Layer_2" data-name="Layer 2"><g id="Layer_1-2" data-name="Layer 1"><g id="ScUYwZ"><path class="cls-1" d="M113.64,80.8,86.83,65.72a63.49,63.49,0,0,0-13.34,39.82c.15,31.57,22.73,58.89,53.44,64.73,31.41,6,62.65-10.94,74.15-40.15,11.87-30.19,1.54-63.75-25.81-80.53C152.85,35.83,129.75,23.18,107,10c-1.28-.74-2.52-1.55-4.67-2.87,2.15-.88,3.55-1.55,5-2C178.91-18,251.12,40.53,243.15,115.33c-4.9,46-38.51,83.2-82.84,91.79-46.77,9.07-92-12.45-113.92-54.2C25,112.07,33.66,60.25,67.16,28.83c2.36-2.21,4.09-3,7.26-1.18,27.33,15.61,54.82,31,82.19,46.51,12.73,7.24,19.18,18.45,18.35,33s-8.36,25-21.87,30.81a35.24,35.24,0,0,1-41-10.59A35.76,35.76,0,0,1,110.68,85Z"/><path class="cls-1" d="M133.07,257.46c-6-.54-11.71,1.24-17.42-3.32-7.88-6.31-19.52-3.23-25.27,5.5A19.72,19.72,0,0,0,96,286.92c8.5,5.37,19.87,3,25.17-5.19a29.19,29.19,0,0,0,1.54-3.37h-16c-8.51,0-8.51,0-7-9.17h36.08c3,12.5-7.57,27.7-21.76,31.29-17.09,4.33-33.45-4.9-37.94-21.39-4.61-16.91,4.81-34,21.21-38.6C113,236.17,129.09,243.59,133.07,257.46Z"/><path class="cls-1" d="M0,241.38c10.19,0,20-.79,29.66.34,4.61.55,9.62,3.93,13,7.42,10.4,10.67,10,32.22-.2,43.13-4,4.31-8.85,7.36-14.72,7.59-9.1.37-18.23.1-27.77.1Zm18.39,49.06c14.14-.09,20.44-6.53,20.11-20.56-.29-12.52-7.4-19.36-20.24-19.46-7.15,0-7.15,0-7.16,6.86v25.9C11.1,290.48,11.1,290.48,18.39,290.44Z"/><path class="cls-1" d="M245.94,272.13V300h-11c-.08-1.87-.24-3.78-.24-5.69q0-23.46,0-46.92c0-7,0-7,7.1-6.86,1.14,0,2.28.14,4,.26v28.28l1,.34a30.15,30.15,0,0,0,2.16-2.79c3.9-6.39,7.75-12.81,11.63-19.21,4.74-7.82,6-8.31,16.35-6-5.22,8.1-10.09,16.15-15.49,23.82-2.6,3.69-2.67,6.31,0,10.06,5.43,7.73,10.25,15.89,15.36,23.93-7.51,2.84-11.71,1.57-15.43-4.47q-7-11.43-14.08-22.86Z"/><path class="cls-1" d="M187.19,251.37H165.75V240.55H183c4.49,0,9,.17,13.47-.05,3.11-.15,4.47,1.11,3.92,4-.6,3.17-.95,6.64-2.52,9.34-6.76,11.6-13.92,23-21.55,35.43h24.26V300h-36.6c-.62-4.93-1-9.5,2.12-14.15,6.35-9.55,12.15-19.47,18.15-29.25C185.06,255.25,185.81,253.82,187.19,251.37Z"/><path class="cls-1" d="M221.33,300.08H210.42V241h10.91Z"/><path class="cls-1" d="M67.57,300.14H57v-59.2H67.57Z"/><path class="cls-1" d="M153.44,300.15H142.83V241h10.61Z"/></g></g></g></svg>