<svg xmlns="http://www.w3.org/2000/svg" viewBox="0 0 639.4 741.08"><defs><style>.cls-1{fill:#ff3000;}.cls-2{fill:#fff;}</style></defs><title>logo</title><g id="Layer_2" data-name="Layer 2"><g id="Calque_1" data-name="Calque 1"><rect class="cls-1" y="279.35" width="58.15" height="461.73"/><rect class="cls-1" x="116.31" y="279.35" width="58.15" height="461.73"/><rect class="cls-1" x="232.61" y="279.35" width="58.16" height="461.73"/><rect class="cls-1" x="348.63" y="218.13" width="58.15" height="461.73"/><rect class="cls-1" x="464.94" y="119.99" width="58.15" height="461.73"/><rect class="cls-1" x="581.25" y="31.46" width="58.15" height="461.73"/><path class="cls-2" d="M6.69,55.86V.87h14V51l29.89-.87v12.2l-36.34.87C9.39,63.27,6.69,60.65,6.69,55.86Z"/><path class="cls-2" d="M57.5.87h43.83v12.2H71.44V25.45H97v12.2H71.44V50.11h29.89v12.2H57.5Z"/><path class="cls-2" d="M136.1,63.18c-22.13,0-30.41-9.06-30.41-24.58h13.94C119.63,48,124.34,51,136.54,51c9,0,11.94-2.09,11.94-5.4,0-4.45-7.5-6.45-16.47-9.5-13-4.36-23.53-7.85-23.53-19.87C108.48,5.75,116.76,0,132.62,0c18.82,0,27.27,9.59,27.27,21.79H146c0-7.5-5.75-9.59-13.33-9.59-6.28,0-10.2,1.39-10.2,4.53,0,2.79,1.48,3.84,11.33,7.15,11.33,3.83,28.67,8.71,28.67,21.52C162.42,56,155,63.18,136.1,63.18Z"/><path class="cls-2" d="M36.76,93.88c15.42,0,27.36,9.41,29.19,22.83H52c-1.4-7.23-6-10.63-15.25-10.63-10.72,0-17,5.84-17,19.35s5,19.43,15.08,19.43c8.37,0,13.59-4.18,13.59-12.46H34.23V121.94H66.3c4.79,0,7.41,2.62,7.41,7.41v26.84H59.76V135l2.62-9.58H58.89c-.09,19.26-7.67,31.63-24.57,31.63-18.39,0-28.5-12.81-28.5-31.63S19,93.88,36.76,93.88Z"/><path class="cls-2" d="M124.34,136.5H99.41l-5.49,19.69H79.81L97.5,94.75h28.75L144,156.19H129.91Zm-3.4-12.21-7.32-26.05h-3.49l-7.32,26.05Z"/><path class="cls-2" d="M150.13,94.75h23.79c14.64,0,27.37,3.4,27.37,17.17,0,10.11-8.2,12.9-15.6,13.77v3.48h9c4.8,0,7.41,2.62,7.41,7.41v19.61H188.13V134.58h-24v21.61h-14Zm23.79,27.63c8.28,0,13.42,0,13.42-7.67S182.2,107,173.92,107h-9.84v15.43Z"/><path class="cls-2" d="M252.7,136.5H227.78l-5.49,19.69H208.17l17.69-61.44h28.76l17.78,61.44H258.28Zm-3.4-12.21L242,98.24H238.5l-7.32,26.05Z"/><path class="cls-2" d="M304.2,93.88c15.43,0,27.37,9.41,29.2,22.83H319.45c-1.39-7.23-6-10.63-15.25-10.63-10.72,0-17,5.84-17,19.35s5,19.43,15.08,19.43c8.36,0,13.59-4.18,13.59-12.46h-14.2V121.94h32.06c4.8,0,7.41,2.62,7.41,7.41v26.84H327.21V135l2.61-9.58h-3.48c-.09,19.26-7.67,31.63-24.58,31.63-18.38,0-28.49-12.81-28.49-31.63S286.43,93.88,304.2,93.88Z"/><path class="cls-2" d="M348.12,94.75H392V107H362.07v12.38H387.6v12.2H362.07V144H392v12.2H348.12Z"/><path class="cls-2" d="M426.73,157.06c-22.14,0-30.41-9.06-30.41-24.57h13.94c0,9.41,4.7,12.37,16.9,12.37,9,0,11.94-2.09,11.94-5.4,0-4.45-7.49-6.45-16.47-9.5-13-4.36-23.53-7.84-23.53-19.87,0-10.46,8.28-16.21,24.14-16.21,18.83,0,27.28,9.59,27.28,21.79H436.58c0-7.5-5.76-9.59-13.34-9.59-6.27,0-10.19,1.4-10.19,4.53,0,2.79,1.48,3.84,11.33,7.15,11.32,3.83,28.67,8.71,28.67,21.52C453.05,149.83,445.64,157.06,426.73,157.06Z"/><path class="cls-2" d="M6.69,188.64H34.14l18.56,58h3.49l-2.61-8.72V188.64H67.52v61.43H40.07L21.51,192.12H18l2.62,8.72v49.23H6.69Z"/><path class="cls-2" d="M75.36,188.64h14v32.41c0,11,1,17.69,13.76,17.69s13.86-6.71,13.86-17.69V188.64h13.94v38.6c0,15.34-9.58,23.7-27.8,23.7s-27.71-8.36-27.71-23.7Z"/><path class="cls-2" d="M138.72,188.64h27.45l9,58h3.49l9-58h27.45v61.43H201.11V200.84l2.62-8.72h-3.49l-9.85,57.95h-27l-9.85-57.95h-3.48l2.61,8.72v49.23H138.72Z"/><path class="cls-2" d="M223.77,188.64H267.6v12.2H237.71v12.37h25.54v12.2H237.71v12.46H267.6v12.2H223.77Zm36.86-21.79,2.35,9.93-34,7.5-2.35-9.94Z"/><path class="cls-2" d="M275.45,188.64h23.79c14.64,0,27.36,3.39,27.36,17.16,0,10.11-8.19,12.9-15.6,13.77v3.49h9c4.79,0,7.4,2.61,7.4,7.4v19.61H313.44V228.46H289.39v21.61H275.45Zm23.79,27.62c8.28,0,13.42,0,13.42-7.67s-5.14-7.75-13.42-7.75h-9.85v15.42Z"/><path class="cls-2" d="M363.11,200.84v37h13.95v12.2H335.23v-12.2h13.94v-37H335.23v-12.2h41.83v12.2Z"/><path class="cls-2" d="M455.05,254.43v12.2c-24.05-3.31-38.78-2.7-60.56.43l-1.14-11.32c8.8-.88,21.44-1.66,30.85-7l-1.92-3.13c-3.13,2.61-7.14,4.44-15.42,4.44-14.47,0-27.19-11.94-27.19-30.76,0-17.86,12.72-31.55,32.24-31.55s32.16,12.81,32.16,31.55c0,17.43-9.85,27.71-20.3,33.38C432.57,252,441.19,252.6,455.05,254.43Zm-24.92-35.12c0-11.76-6.63-19.35-18.22-19.35s-18.3,7.59-18.3,19.35,6.71,19.43,18.3,19.43S430.13,231.16,430.13,219.31Z"/><path class="cls-2" d="M450.69,188.64h13.95v32.41c0,11,1,17.69,13.77,17.69s13.85-6.71,13.85-17.69V188.64H506.2v38.6c0,15.34-9.58,23.7-27.79,23.7s-27.72-8.36-27.72-23.7Z"/><path class="cls-2" d="M514.05,188.64h43.83v12.2H528v12.37h25.53v12.2H528v12.46h29.89v12.2H514.05Z"/><path class="cls-2" d="M592.65,250.94c-22.13,0-30.41-9.06-30.41-24.57h13.94c0,9.41,4.71,12.37,16.91,12.37,9,0,11.94-2.09,11.94-5.4,0-4.44-7.5-6.45-16.47-9.5C575.57,219.48,565,216,565,204c0-10.45,8.28-16.21,24.14-16.21,18.82,0,27.27,9.59,27.27,21.79H602.5c0-7.49-5.75-9.59-13.33-9.59-6.28,0-10.2,1.4-10.2,4.54,0,2.78,1.48,3.83,11.33,7.14,11.33,3.84,28.67,8.72,28.67,21.53C619,243.71,611.56,250.94,592.65,250.94Z"/></g></g></svg>